<?xml version="1.0" encoding="UTF-8" standalone="no"?>
<!DOCTYPE svg PUBLIC "-//W3C//DTD SVG 1.1//EN" "http://www.w3.org/Graphics/SVG/1.1/DTD/svg11.dtd">
<svg xmlns="http://www.w3.org/2000/svg" version="1.1" viewBox="0.00 0.00 735.00 386.00">
<path fill="#000000" d="
  M 459.80 183.25
  A 0.49 0.49 0.0 0 0 460.43 183.73
  Q 505.68 170.11 551.25 156.48
  Q 555.91 155.08 558.81 158.58
  Q 560.68 160.84 560.13 163.82
  C 559.50 167.19 557.22 168.56 554.25 169.45
  Q 506.63 183.74 460.02 197.69
  A 0.37 0.37 0.0 0 0 459.76 198.04
  L 459.72 210.24
  A 0.28 0.28 0.0 0 0 460.08 210.51
  Q 505.22 196.97 550.99 183.24
  C 560.44 180.40 564.16 193.11 555.00 195.87
  Q 507.63 210.14 460.14 224.34
  A 0.67 0.67 0.0 0 0 459.66 224.98
  L 459.59 237.00
  A 0.27 0.26 -8.9 0 0 459.94 237.25
  Q 504.74 223.80 549.92 210.25
  C 552.73 209.40 555.49 208.89 557.96 211.03
  Q 559.82 212.65 560.09 214.79
  Q 560.87 220.81 554.57 222.70
  Q 507.90 236.72 460.47 250.94
  A 1.36 1.36 0.0 0 0 459.50 252.23
  L 459.48 263.75
  A 0.25 0.24 -8.8 0 0 459.80 263.98
  Q 505.23 250.32 549.50 237.08
  C 551.25 236.55 553.21 235.92 554.99 236.31
  C 560.18 237.45 561.93 243.30 558.46 247.18
  Q 557.11 248.69 553.79 249.67
  Q 509.36 262.89 463.02 276.91
  Q 461.07 277.50 459.05 278.18
  C 457.30 278.77 455.43 279.17 453.65 279.71
  Q 372.21 304.09 288.85 329.14
  A 2.13 2.12 -38.0 0 1 287.18 328.94
  Q 233.98 297.70 180.39 266.25
  Q 177.16 264.35 176.15 263.12
  C 171.34 257.26 178.55 249.79 185.15 253.66
  Q 236.95 284.04 288.98 314.58
  Q 289.67 314.99 290.44 314.76
  L 369.30 291.14
  A 1.00 0.99 81.9 0 0 370.01 290.18
  L 369.99 278.78
  A 0.53 0.52 -8.3 0 0 369.31 278.28
  L 289.19 302.37
  A 2.95 2.95 0.0 0 1 286.87 302.09
  Q 232.68 270.22 178.56 238.49
  C 170.18 233.58 176.76 222.03 185.52 227.17
  Q 237.88 257.92 288.53 287.66
  A 3.03 3.01 51.7 0 0 290.93 287.95
  L 369.29 264.47
  A 0.89 0.89 0.0 0 0 369.92 263.62
  L 369.85 252.01
  A 0.44 0.44 0.0 0 0 369.28 251.59
  L 289.03 275.71
  A 2.48 2.48 0.0 0 1 287.05 275.48
  Q 233.04 243.81 178.22 211.60
  C 170.27 206.93 177.07 195.53 185.00 200.19
  Q 236.76 230.57 289.01 261.24
  A 1.77 1.76 -37.8 0 0 290.41 261.41
  L 369.34 237.75
  A 0.60 0.58 82.3 0 0 369.76 237.18
  L 369.74 225.19
  A 0.31 0.30 -8.5 0 0 369.34 224.90
  L 289.27 248.94
  A 3.15 3.15 0.0 0 1 286.78 248.64
  Q 232.52 216.78 178.26 184.94
  C 171.80 181.15 174.99 171.24 182.30 172.64
  Q 184.14 173.00 188.01 175.27
  Q 238.38 204.84 288.77 234.41
  A 2.44 2.44 0.0 0 0 290.69 234.64
  L 368.83 211.21
  A 1.19 1.19 0.0 0 0 369.67 210.06
  L 369.59 198.54
  Q 369.59 198.14 369.21 198.26
  Q 329.64 210.14 290.64 221.82
  C 287.82 222.66 284.99 221.04 282.62 219.63
  Q 229.26 187.99 180.69 159.79
  C 177.20 157.76 173.69 155.34 174.84 150.72
  Q 175.78 146.91 180.40 145.64
  Q 226.63 132.94 272.68 120.28
  A 2.81 2.77 52.3 0 1 274.83 120.57
  L 379.28 182.97
  Q 379.74 183.24 379.74 183.77
  L 380.21 287.15
  Q 380.22 287.86 380.89 287.65
  L 448.51 267.38
  A 1.04 1.03 81.7 0 0 449.24 266.39
  Q 449.46 219.61 449.62 173.25
  Q 449.64 168.70 449.44 164.88
  A 3.29 3.28 14.0 0 0 447.84 162.23
  Q 420.38 145.80 395.26 130.87
  C 379.09 121.26 363.24 110.95 347.48 100.60
  A 0.46 0.45 40.8 0 1 347.42 99.88
  Q 347.72 99.59 348.14 99.48
  Q 365.13 94.96 384.68 89.42
  C 399.18 85.30 415.43 76.23 422.74 62.57
  C 426.14 56.20 430.30 54.38 435.98 59.77
  C 449.55 72.67 463.91 85.25 479.36 95.37
  C 484.78 98.91 490.58 101.96 496.57 104.50
  Q 526.97 117.37 556.01 129.69
  C 562.38 132.39 561.36 140.58 555.03 142.48
  Q 507.30 156.85 460.54 170.84
  Q 459.88 171.04 459.88 171.72
  L 459.80 183.25
  Z"
/>
</svg>
