<?xml version="1.0" encoding="UTF-8" standalone="no"?>
<!DOCTYPE svg PUBLIC "-//W3C//DTD SVG 1.1//EN" "http://www.w3.org/Graphics/SVG/1.1/DTD/svg11.dtd">
<svg xmlns="http://www.w3.org/2000/svg" version="1.1" viewBox="0.00 0.00 735.00 386.00">
<path fill="#000000" d="
  M 394.63 85.91
  C 406.00 80.98 417.41 73.11 423.30 61.64
  Q 424.68 58.94 426.57 57.68
  C 430.49 55.06 433.62 57.42 436.62 60.32
  C 450.32 73.61 466.42 87.64 483.06 97.62
  Q 490.42 102.04 500.82 106.37
  Q 528.65 117.98 556.17 129.79
  C 558.53 130.80 560.43 133.31 560.29 135.94
  Q 560.04 140.99 554.92 142.53
  Q 422.78 182.20 291.40 221.61
  C 287.68 222.73 285.74 221.34 282.69 219.55
  Q 229.40 188.28 179.22 158.82
  C 175.83 156.83 173.57 153.94 175.06 150.08
  Q 176.33 146.81 179.83 145.85
  Q 277.71 118.83 376.44 91.82
  Q 388.82 88.43 394.63 85.91
  Z
  M 290.50 208.00
  L 533.18 135.20
  Q 534.23 134.88 533.22 134.45
  Q 515.36 126.84 496.80 119.09
  Q 486.46 114.77 479.87 111.18
  Q 469.35 105.45 456.69 95.47
  Q 443.86 85.37 432.07 74.38
  A 0.70 0.69 -50.9 0 0 431.03 74.49
  Q 426.04 81.47 418.32 87.35
  Q 404.73 97.71 388.18 102.27
  Q 294.10 128.14 199.20 154.26
  A 0.46 0.45 52.7 0 0 199.09 155.09
  L 288.96 207.82
  A 1.97 1.96 -38.2 0 0 290.50 208.00
  Z"
/>
<path fill="#000000" d="
  M 507.42 169.57
  Q 529.30 162.98 551.25 156.48
  C 560.34 153.79 564.16 166.49 554.97 169.24
  Q 419.04 209.98 289.71 248.82
  A 4.24 4.20 -37.9 0 1 286.36 248.42
  Q 233.61 217.34 179.85 185.95
  C 176.34 183.90 173.44 181.04 175.21 176.62
  Q 176.96 172.27 181.97 172.53
  C 184.09 172.64 187.83 175.16 190.13 176.51
  Q 239.45 205.47 288.70 234.37
  A 2.59 2.56 51.7 0 0 290.74 234.62
  Q 393.84 203.74 507.42 169.57
  Z"
/>
<path fill="#000000" d="
  M 364.89 252.93
  Q 292.26 274.67 288.97 275.71
  Q 287.95 276.03 287.03 275.49
  Q 233.41 243.98 178.30 211.67
  C 170.23 206.94 177.06 195.53 184.99 200.18
  Q 236.85 230.62 289.03 261.25
  A 1.78 1.76 -37.6 0 0 290.41 261.42
  Q 420.71 222.32 550.99 183.23
  C 560.39 180.41 564.44 193.02 554.49 196.01
  Q 457.03 225.34 364.89 252.93
  Z"
/>
<path fill="#000000" d="
  M 554.47 222.64
  C 466.03 249.34 377.72 275.82 289.01 302.40
  A 2.51 2.49 51.7 0 1 287.01 302.16
  Q 232.89 270.35 178.48 238.44
  Q 174.07 235.85 174.86 231.11
  C 175.42 227.77 178.59 225.46 181.99 225.94
  Q 183.82 226.20 185.67 227.29
  Q 237.92 257.91 288.60 287.70
  A 2.85 2.83 -37.7 0 0 290.85 287.98
  Q 420.20 249.18 549.96 210.23
  C 552.75 209.39 555.56 208.90 557.99 211.07
  Q 559.74 212.64 560.07 214.56
  Q 561.12 220.64 554.47 222.64
  Z"
/>
<path fill="#000000" d="
  M 290.34 314.81
  Q 419.69 275.98 549.51 237.09
  C 551.24 236.58 553.38 235.82 555.16 236.35
  Q 559.89 237.75 560.20 242.17
  C 560.48 246.02 558.07 248.36 554.65 249.38
  Q 421.08 289.42 288.82 329.16
  A 2.02 2.00 -37.9 0 1 287.23 328.97
  Q 233.99 297.71 180.39 266.25
  Q 177.16 264.35 176.15 263.12
  C 171.42 257.36 178.51 249.78 184.95 253.56
  Q 237.45 284.33 289.08 314.66
  A 1.60 1.58 51.5 0 0 290.34 314.81
  Z"
/>
</svg>
