<?xml version="1.0" encoding="UTF-8" standalone="no"?>
<!DOCTYPE svg PUBLIC "-//W3C//DTD SVG 1.1//EN" "http://www.w3.org/Graphics/SVG/1.1/DTD/svg11.dtd">
<svg xmlns="http://www.w3.org/2000/svg" version="1.1" viewBox="0.00 0.00 735.00 386.00">
<path fill="#000000" d="
  M 459.80 183.25
  A 0.49 0.49 0.0 0 0 460.43 183.73
  Q 505.68 170.11 551.25 156.48
  Q 555.82 155.11 558.71 158.46
  Q 560.72 160.79 560.11 163.92
  C 559.44 167.32 557.11 168.57 554.21 169.45
  Q 506.61 183.74 460.01 197.70
  A 0.36 0.36 0.0 0 0 459.76 198.04
  L 459.72 210.24
  A 0.28 0.28 0.0 0 0 460.08 210.51
  Q 505.22 196.97 551.00 183.23
  C 560.43 180.40 564.16 193.11 555.00 195.87
  Q 507.63 210.14 460.14 224.34
  A 0.67 0.67 0.0 0 0 459.66 224.98
  L 459.59 237.00
  A 0.27 0.26 -8.9 0 0 459.94 237.25
  Q 504.62 223.84 549.58 210.32
  C 552.46 209.45 555.37 208.83 557.89 210.99
  Q 559.87 212.68 560.12 214.89
  Q 560.80 220.83 554.58 222.70
  Q 507.90 236.72 460.47 250.94
  A 1.36 1.36 0.0 0 0 459.50 252.23
  L 459.48 263.75
  A 0.25 0.24 -8.8 0 0 459.80 263.98
  Q 505.26 250.31 549.51 237.07
  C 551.29 236.54 553.23 235.91 555.05 236.32
  C 560.21 237.48 561.91 243.33 558.46 247.18
  Q 557.10 248.70 553.74 249.69
  Q 509.35 262.86 463.01 276.92
  Q 461.01 277.52 459.05 278.18
  C 457.30 278.77 455.44 279.17 453.66 279.70
  Q 371.20 304.40 288.85 329.14
  A 2.13 2.12 -38.0 0 1 287.18 328.94
  Q 233.98 297.70 180.39 266.25
  Q 177.16 264.35 176.15 263.12
  C 171.34 257.26 178.55 249.79 185.15 253.66
  Q 236.95 284.04 288.98 314.58
  Q 289.67 314.99 290.44 314.76
  L 369.30 291.14
  A 1.00 0.99 81.9 0 0 370.01 290.18
  L 369.99 278.78
  A 0.53 0.52 -8.3 0 0 369.31 278.28
  L 289.18 302.37
  A 2.89 2.88 -38.2 0 1 286.90 302.10
  Q 232.31 270.02 178.42 238.40
  C 170.25 233.60 176.77 222.04 185.49 227.16
  Q 237.88 257.91 288.54 287.66
  A 3.05 3.03 -37.9 0 0 290.93 287.95
  L 369.29 264.47
  A 0.89 0.89 0.0 0 0 369.92 263.62
  L 369.85 252.01
  A 0.44 0.44 0.0 0 0 369.28 251.59
  L 289.04 275.71
  A 2.51 2.50 51.8 0 1 287.06 275.47
  Q 233.47 244.05 178.30 211.66
  C 170.23 206.92 177.04 195.52 185.04 200.21
  Q 236.72 230.54 289.01 261.24
  A 1.77 1.76 -37.8 0 0 290.41 261.41
  L 369.34 237.75
  A 0.60 0.58 82.3 0 0 369.76 237.18
  L 369.74 225.19
  A 0.31 0.30 -8.5 0 0 369.34 224.90
  L 289.26 248.94
  A 3.11 3.10 51.9 0 1 286.79 248.64
  Q 232.70 216.89 178.28 184.94
  C 171.80 181.14 174.99 171.24 182.30 172.64
  Q 184.14 173.00 188.01 175.27
  Q 238.38 204.84 288.77 234.41
  A 2.44 2.44 0.0 0 0 290.69 234.64
  L 368.83 211.21
  A 1.19 1.19 0.0 0 0 369.67 210.06
  L 369.59 198.54
  Q 369.59 198.15 369.21 198.26
  Q 329.79 210.09 290.76 221.78
  C 287.75 222.68 285.72 221.34 282.66 219.54
  Q 232.42 190.03 180.93 159.84
  C 178.70 158.53 175.82 157.12 175.03 154.43
  C 173.73 149.98 176.19 146.83 180.27 145.70
  Q 277.45 118.89 376.92 91.69
  Q 387.96 88.68 394.58 85.86
  C 405.62 81.16 417.57 72.98 422.93 62.26
  Q 424.45 59.20 426.51 57.73
  C 430.10 55.16 433.15 57.11 435.98 59.79
  C 449.71 72.78 463.95 85.29 479.47 95.44
  C 484.62 98.82 490.42 101.92 496.13 104.33
  Q 524.75 116.41 555.25 129.36
  Q 557.08 130.14 558.31 131.28
  C 562.30 134.98 560.02 141.00 555.15 142.47
  Q 509.60 156.14 460.76 170.79
  Q 459.88 171.06 459.87 171.98
  L 459.80 183.25
  Z
  M 379.74 183.74
  L 380.21 287.28
  A 0.44 0.43 81.0 0 0 380.77 287.69
  L 448.57 267.36
  A 0.94 0.94 0.0 0 0 449.24 266.46
  Q 449.48 214.29 449.62 173.25
  Q 449.64 168.67 449.45 164.95
  A 3.48 3.44 -76.3 0 0 447.77 162.16
  L 361.04 110.46
  A 2.25 2.24 52.6 0 0 359.28 110.22
  L 290.33 129.18
  Q 289.50 129.40 290.24 129.84
  L 379.28 182.92
  A 0.96 0.96 0.0 0 1 379.74 183.74
  Z"
/>
</svg>
