<?xml version="1.0" encoding="UTF-8" standalone="no"?>
<!DOCTYPE svg PUBLIC "-//W3C//DTD SVG 1.1//EN" "http://www.w3.org/Graphics/SVG/1.1/DTD/svg11.dtd">
<svg xmlns="http://www.w3.org/2000/svg" version="1.1" viewBox="0.00 0.00 735.00 386.00">
<path fill="#000000" d="
  M 459.80 183.44
  A 0.35 0.35 0.0 0 0 460.25 183.78
  Q 504.93 170.33 550.80 156.59
  Q 555.89 155.06 558.61 158.35
  Q 560.72 160.90 560.11 163.89
  C 559.41 167.38 557.10 168.58 554.10 169.48
  Q 506.70 183.72 460.25 197.62
  Q 459.76 197.77 459.76 198.28
  L 459.72 210.05
  Q 459.72 210.61 460.25 210.45
  Q 504.52 197.20 550.87 183.27
  Q 553.44 182.49 555.81 183.16
  C 559.06 184.07 560.94 187.88 560.05 191.00
  Q 559.00 194.65 555.04 195.84
  Q 506.10 210.60 460.14 224.34
  A 0.67 0.67 0.0 0 0 459.66 224.98
  L 459.59 237.00
  A 0.26 0.26 0.0 0 0 459.93 237.25
  Q 504.72 223.78 550.06 210.21
  Q 552.00 209.63 553.92 209.53
  C 556.84 209.37 559.79 212.02 560.12 214.87
  Q 560.81 220.82 554.59 222.69
  Q 507.56 236.84 460.48 250.93
  A 1.37 1.37 0.0 0 0 459.50 252.23
  L 459.48 263.75
  A 0.25 0.25 0.0 0 0 459.80 263.99
  Q 505.28 250.31 549.52 237.07
  C 551.23 236.56 553.22 235.91 554.97 236.30
  C 560.17 237.45 561.94 243.28 558.46 247.18
  Q 557.09 248.70 553.73 249.70
  Q 509.34 262.86 463.01 276.91
  Q 461.04 277.51 459.05 278.19
  C 457.30 278.78 455.43 279.17 453.64 279.71
  Q 372.10 304.13 288.85 329.14
  A 2.13 2.12 -38.0 0 1 287.18 328.94
  Q 233.88 297.64 180.19 266.13
  Q 177.12 264.33 176.12 263.09
  C 171.45 257.29 178.56 249.80 184.94 253.55
  Q 236.60 283.83 288.95 314.58
  Q 289.66 315.00 290.45 314.76
  L 369.29 291.14
  Q 370.01 290.93 370.01 290.18
  L 369.99 278.78
  A 0.53 0.52 -8.3 0 0 369.31 278.28
  L 289.15 302.38
  A 2.84 2.83 -38.0 0 1 286.91 302.11
  Q 232.44 270.08 178.50 238.45
  C 170.21 233.59 176.75 222.02 185.54 227.18
  Q 237.88 257.91 288.53 287.66
  A 3.02 2.97 51.4 0 0 290.92 287.95
  L 369.21 264.49
  A 1.00 0.99 81.9 0 0 369.92 263.53
  L 369.85 252.01
  A 0.44 0.44 0.0 0 0 369.28 251.59
  L 289.19 275.67
  A 2.87 2.84 -37.9 0 1 286.92 275.40
  Q 231.82 243.05 178.32 211.69
  C 170.23 206.96 177.05 195.52 184.99 200.18
  Q 236.84 230.61 289.01 261.24
  A 1.77 1.76 -37.8 0 0 290.41 261.41
  L 369.21 237.79
  A 0.77 0.77 0.0 0 0 369.77 237.05
  L 369.73 225.19
  A 0.30 0.30 0.0 0 0 369.34 224.90
  L 289.57 248.85
  A 3.87 3.87 0.0 0 1 286.51 248.48
  Q 232.03 216.50 178.20 184.90
  C 170.39 180.31 176.59 168.56 185.89 174.02
  Q 237.28 204.19 288.72 234.38
  A 2.53 2.51 -37.6 0 0 290.74 234.63
  L 369.00 211.16
  A 0.96 0.95 -8.7 0 0 369.67 210.25
  L 369.59 198.54
  Q 369.59 198.14 369.21 198.26
  Q 327.46 210.80 290.51 221.86
  C 287.60 222.73 285.08 220.94 282.52 219.44
  Q 232.37 190.02 182.23 160.60
  C 178.72 158.54 173.40 156.13 174.82 150.82
  Q 175.87 146.92 179.81 145.84
  Q 279.11 118.44 377.44 91.55
  Q 389.31 88.30 395.47 85.52
  C 406.94 80.34 417.67 72.73 423.53 61.23
  C 425.85 56.69 430.77 54.77 434.85 58.70
  Q 454.17 77.32 471.53 90.04
  C 479.61 95.96 488.04 100.92 497.18 104.78
  Q 525.24 116.60 556.04 129.71
  C 559.39 131.13 561.09 134.58 559.90 138.12
  C 559.01 140.77 557.07 141.86 554.61 142.60
  Q 507.60 156.79 460.58 170.83
  A 1.00 1.00 0.0 0 0 459.87 171.77
  L 459.80 183.44
  Z
  M 460.47 157.01
  L 533.18 135.20
  Q 534.30 134.87 533.22 134.41
  Q 511.52 125.35 488.82 115.59
  Q 479.73 111.69 471.68 106.27
  Q 451.01 92.34 432.28 74.47
  A 0.88 0.87 -50.1 0 0 430.97 74.59
  C 421.12 88.13 404.57 97.63 388.70 102.12
  Q 381.84 104.06 374.38 105.99
  A 0.27 0.27 0.0 0 0 374.31 106.48
  L 458.70 156.80
  Q 459.54 157.29 460.47 157.01
  Z
  M 379.74 183.74
  L 380.21 287.28
  A 0.44 0.43 81.0 0 0 380.77 287.69
  L 448.58 267.36
  A 0.92 0.92 0.0 0 0 449.23 266.48
  Q 449.50 217.27 449.62 170.54
  Q 449.63 167.32 449.37 164.19
  Q 449.33 163.69 448.98 163.34
  Q 447.88 162.25 446.61 161.49
  Q 402.66 135.24 360.98 110.44
  A 2.17 2.15 52.5 0 0 359.31 110.21
  L 290.33 129.18
  Q 289.50 129.40 290.24 129.84
  L 379.28 182.92
  Q 379.74 183.20 379.74 183.74
  Z
  M 275.97 133.23
  A 0.32 0.32 0.0 0 0 275.72 133.20
  L 198.90 154.34
  A 0.32 0.32 0.0 0 0 198.82 154.92
  L 289.56 208.17
  A 0.32 0.32 0.0 0 0 289.81 208.20
  L 363.63 186.10
  A 0.32 0.32 0.0 0 0 363.70 185.52
  L 275.97 133.23
  Z"
/>
</svg>
